<svg width="135" height="77" viewBox="0 0 135 77" fill="none" xmlns="http://www.w3.org/2000/svg">
<path d="M17.7368 20.6273C16.9232 21.6656 15.8866 22.4698 14.6391 23.034C13.3915 23.5981 12.1018 23.8802 10.7638 23.8802C9.49219 23.8802 8.29889 23.6761 7.17188 23.268C6.0509 22.8599 5.07456 22.2778 4.24889 21.5216C3.42322 20.7654 2.7663 19.8591 2.29019 18.7969C1.81407 17.7346 1.573 16.5523 1.573 15.2379C1.573 13.9296 1.81407 12.7413 2.29019 11.679C2.7663 10.6167 3.41719 9.71051 4.24889 8.95432C5.07456 8.19812 6.0509 7.61597 7.17188 7.20786C8.29286 6.79976 9.49219 6.5957 10.7638 6.5957C11.9451 6.5957 13.0118 6.79976 13.9761 7.20786C14.9404 7.61597 15.754 8.19812 16.423 8.95432C17.092 9.71051 17.6103 10.6227 17.9719 11.679C18.3335 12.7413 18.5143 13.9236 18.5143 15.2379V16.8284H6.67769C6.8826 17.8006 7.32255 18.5748 8.00358 19.151C8.6846 19.7271 9.52233 20.0152 10.5228 20.0152C11.3605 20.0152 12.0717 19.8291 12.6502 19.457C13.2288 19.0849 13.7351 18.6048 14.163 18.0167L17.7368 20.6273ZM13.4156 13.3775C13.4397 12.5192 13.1565 11.7871 12.5659 11.1749C11.9752 10.5627 11.2159 10.2627 10.2877 10.2627C9.72121 10.2627 9.22099 10.3527 8.79309 10.5327C8.35916 10.7128 7.99152 10.9468 7.69019 11.2289C7.38282 11.511 7.14777 11.8411 6.973 12.2132C6.80425 12.5853 6.70782 12.9754 6.68371 13.3835H13.4156V13.3775Z" fill="white"/>
<path d="M19.0266 7.00983H24.5351L28.7177 18.1907H28.784L32.6592 7.00983H37.794L31.261 23.4721H25.8489L19.0266 7.00983Z" fill="white"/>
<path d="M54.4761 20.6273C53.6625 21.6656 52.6259 22.4698 51.3783 23.034C50.1308 23.5981 48.8411 23.8802 47.5031 23.8802C46.2315 23.8802 45.0382 23.6761 43.9111 23.268C42.7902 22.8599 41.8138 22.2778 40.9882 21.5216C40.1625 20.7654 39.5056 19.8591 39.0294 18.7969C38.5533 17.7346 38.3123 16.5523 38.3123 15.2379C38.3123 13.9296 38.5533 12.7413 39.0294 11.679C39.5056 10.6167 40.1565 9.71051 40.9882 8.95432C41.8138 8.19812 42.7902 7.61597 43.9111 7.20786C45.0321 6.79976 46.2315 6.5957 47.5031 6.5957C48.6844 6.5957 49.7511 6.79976 50.7154 7.20786C51.6797 7.61597 52.4933 8.19812 53.1623 8.95432C53.8312 9.71051 54.3495 10.6227 54.7111 11.679C55.0728 12.7413 55.2536 13.9236 55.2536 15.2379V16.8284H43.4169C43.6219 17.8006 44.0618 18.5748 44.7428 19.151C45.4239 19.7271 46.2616 20.0152 47.262 20.0152C48.0998 20.0152 48.8109 19.8291 49.3895 19.457C49.9681 19.0849 50.4743 18.6048 50.9022 18.0167L54.4761 20.6273ZM50.1549 13.3775C50.179 12.5192 49.8957 11.7871 49.3051 11.1749C48.7145 10.5627 47.9551 10.2627 47.027 10.2627C46.4605 10.2627 45.9603 10.3527 45.5323 10.5327C45.0984 10.7128 44.7308 10.9468 44.4294 11.2289C44.1221 11.511 43.887 11.8411 43.7123 12.2132C43.5435 12.5853 43.4471 12.9754 43.423 13.3835H50.1549V13.3775Z" fill="white"/>
<path d="M57.2304 7.00982H62.1302V9.2484H62.1965C62.3532 8.93032 62.5822 8.61824 62.8775 8.30016C63.1728 7.98207 63.5224 7.7 63.9322 7.45394C64.342 7.20787 64.8061 7.00382 65.3244 6.84178C65.8487 6.68574 66.4152 6.60172 67.0239 6.60172C68.3197 6.60172 69.3623 6.79977 70.1518 7.19587C70.9474 7.59197 71.5621 8.13811 72.0081 8.8403C72.448 9.54248 72.7494 10.3647 72.9121 11.3129C73.0688 12.2612 73.1471 13.2875 73.1471 14.3977V23.4781H68.0424V15.418C68.0424 14.9439 68.0244 14.4518 67.9942 13.9416C67.9581 13.4315 67.8556 12.9634 67.6869 12.5373C67.5181 12.1111 67.2529 11.7571 66.9034 11.487C66.5538 11.2169 66.0476 11.0789 65.3907 11.0789C64.7337 11.0789 64.1974 11.1989 63.7936 11.433C63.3837 11.673 63.0764 11.9851 62.8594 12.3812C62.6424 12.7773 62.5038 13.2214 62.4315 13.7196C62.3652 14.2177 62.3291 14.7338 62.3291 15.28V23.4781H57.2244L57.2304 7.00982Z" fill="white"/>
<path d="M87.7078 11.0729H83.2179V16.5583C83.2179 17.0084 83.242 17.4225 83.2842 17.7946C83.3264 18.1667 83.4288 18.4908 83.5915 18.7609C83.7482 19.0309 83.9953 19.241 84.3208 19.385C84.6523 19.5351 85.0862 19.6071 85.6286 19.6071C85.8998 19.6071 86.2554 19.5771 86.7014 19.5231C87.1413 19.4691 87.4788 19.337 87.7078 19.133V23.3701C87.1413 23.5741 86.5507 23.7062 85.936 23.7782C85.3212 23.8442 84.7246 23.8802 84.134 23.8802C83.2721 23.8802 82.4766 23.7902 81.7534 23.6101C81.0302 23.4301 80.3913 23.142 79.8489 22.7459C79.3065 22.3498 78.8786 21.8397 78.5712 21.2035C78.2639 20.5733 78.1132 19.8051 78.1132 18.8989V11.0729H74.8467V7.00982H78.1132V2.13055H83.2179V7.00982H87.7078V11.0729Z" fill="white"/>
<path d="M105.601 23.4721H100.702V21.2335H100.635C100.454 21.5516 100.219 21.8637 99.9361 22.1818C99.6529 22.4998 99.3093 22.7819 98.8995 23.028C98.4897 23.274 98.0256 23.4781 97.5073 23.6401C96.983 23.7962 96.4165 23.8742 95.8078 23.8742C94.5181 23.8742 93.4634 23.6762 92.6618 23.2801C91.8542 22.884 91.2335 22.3378 90.7935 21.6356C90.3535 20.9334 90.0582 20.1112 89.9076 19.163C89.7569 18.2147 89.6846 17.1885 89.6846 16.0782V7.00983H94.7893V15.0699C94.7893 15.544 94.8073 16.0362 94.8375 16.5463C94.8736 17.0564 94.9761 17.5246 95.1448 17.9507C95.3136 18.3828 95.5727 18.7309 95.9283 19.0009C96.2779 19.271 96.7841 19.409 97.441 19.409C98.098 19.409 98.6343 19.289 99.0381 19.055C99.448 18.8209 99.7553 18.5028 99.9723 18.1067C100.189 17.7106 100.328 17.2665 100.4 16.7684C100.466 16.2702 100.503 15.7541 100.503 15.208V7.00983H105.607L105.601 23.4721Z" fill="white"/>
<path d="M107.572 7.00982H112.472V9.2484H112.538C112.695 8.93032 112.924 8.61824 113.219 8.30016C113.515 7.98207 113.864 7.7 114.274 7.45394C114.684 7.20787 115.148 7.00382 115.666 6.84178C116.19 6.68574 116.757 6.60172 117.366 6.60172C118.523 6.60172 119.547 6.84178 120.445 7.3159C121.343 7.79002 122.018 8.53422 122.47 9.55448C123.061 8.49221 123.772 7.73601 124.616 7.28589C125.454 6.83578 126.484 6.60772 127.714 6.60772C128.823 6.60772 129.763 6.79376 130.522 7.16586C131.281 7.53796 131.884 8.04809 132.324 8.69026C132.764 9.33242 133.083 10.0886 133.276 10.9588C133.469 11.8291 133.566 12.7593 133.566 13.7556V23.4781H128.461V13.8936C128.461 13.1254 128.298 12.4652 127.967 11.9131C127.635 11.361 127.051 11.0849 126.213 11.0849C125.622 11.0849 125.128 11.1809 124.73 11.373C124.333 11.565 124.013 11.8291 123.778 12.1712C123.537 12.5072 123.368 12.9034 123.266 13.3595C123.163 13.8096 123.115 14.2837 123.115 14.7818V23.4901H118.01V14.7818C118.01 14.4878 117.998 14.1277 117.974 13.6956C117.95 13.2694 117.872 12.8613 117.733 12.4772C117.595 12.0931 117.378 11.7631 117.07 11.493C116.763 11.2229 116.317 11.0849 115.726 11.0849C115.069 11.0849 114.533 11.2049 114.129 11.439C113.719 11.679 113.406 11.9911 113.195 12.3872C112.978 12.7833 112.84 13.2274 112.767 13.7256C112.701 14.2237 112.665 14.7398 112.665 15.286V23.4841H107.56V7.00982H107.572Z" fill="white"/>
<path d="M2.5614 29.3656H7.25627V31.5322H7.32256C7.52747 31.2381 7.79265 30.938 8.12412 30.6319C8.4556 30.3259 8.84131 30.0498 9.28127 29.8037C9.72122 29.5577 10.2034 29.3536 10.7277 29.1916C11.252 29.0355 11.8065 28.9515 12.3971 28.9515C13.6206 28.9515 14.7355 29.1616 15.7299 29.5757C16.7304 29.9958 17.5862 30.5779 18.2973 31.3401C19.0145 32.0963 19.563 32.9966 19.9487 34.0348C20.3344 35.0731 20.5273 36.2134 20.5273 37.4557C20.5273 38.608 20.3525 39.7063 20.0029 40.7566C19.6534 41.8068 19.1531 42.7371 18.5083 43.5533C17.8634 44.3635 17.0739 45.0177 16.1458 45.5038C15.2177 45.9899 14.163 46.23 12.9817 46.23C11.915 46.23 10.9266 46.0679 10.0045 45.7379C9.08841 45.4078 8.32904 44.8496 7.74444 44.0634H7.67814V53.5519H2.57345V29.3656H2.5614ZM7.25627 37.5937C7.25627 38.8361 7.61185 39.8383 8.32904 40.6065C9.04622 41.3747 10.0467 41.7588 11.3424 41.7588C12.6382 41.7588 13.6386 41.3747 14.3558 40.6065C15.073 39.8383 15.4286 38.8361 15.4286 37.5937C15.4286 36.3514 15.073 35.3492 14.3558 34.581C13.6386 33.8128 12.6382 33.4287 11.3424 33.4287C10.0467 33.4287 9.04622 33.8128 8.32904 34.581C7.61185 35.3492 7.25627 36.3514 7.25627 37.5937Z" fill="white"/>
<path d="M22.6668 29.3656H27.7715V32.0063H27.8378C28.3802 30.992 29.0311 30.2299 29.7784 29.7197C30.5257 29.2096 31.4659 28.9575 32.5989 28.9575C32.8943 28.9575 33.1896 28.9695 33.4849 28.9935C33.7802 29.0175 34.0514 29.0595 34.2985 29.1316V33.7708C33.9369 33.6567 33.5753 33.5727 33.2257 33.5187C32.8762 33.4647 32.5025 33.4347 32.1228 33.4347C31.1465 33.4347 30.3751 33.5727 29.8085 33.8428C29.242 34.1129 28.8021 34.491 28.5007 34.9771C28.1934 35.4632 27.9945 36.0454 27.9041 36.7235C27.8137 37.4017 27.7655 38.1459 27.7655 38.9621V45.8399H22.6608L22.6668 29.3656Z" fill="white"/>
<path d="M50.6973 42.9832C49.8837 44.0214 48.8471 44.8256 47.5995 45.3898C46.352 45.9539 45.0622 46.236 43.7243 46.236C42.4526 46.236 41.2593 46.0319 40.1323 45.6238C39.0113 45.2157 38.035 44.6336 37.2093 43.8774C36.3837 43.1212 35.7268 42.215 35.2506 41.1527C34.7745 40.0904 34.5334 38.9081 34.5334 37.5938C34.5334 36.2854 34.7745 35.0971 35.2506 34.0348C35.7268 32.9725 36.3776 32.0663 37.2093 31.3101C38.035 30.5539 39.0113 29.9718 40.1323 29.5637C41.2533 29.1556 42.4526 28.9515 43.7243 28.9515C44.9055 28.9515 45.9723 29.1556 46.9366 29.5637C47.9009 29.9718 48.7145 30.5539 49.3835 31.3101C50.0524 32.0663 50.5707 32.9786 50.9323 34.0348C51.2939 35.0971 51.4747 36.2794 51.4747 37.5938V39.1842H39.6381C39.843 40.1564 40.283 40.9306 40.964 41.5068C41.6451 42.0829 42.4828 42.371 43.4832 42.371C44.3209 42.371 45.0321 42.1849 45.6107 41.8128C46.1893 41.4407 46.6955 40.9606 47.1234 40.3725L50.6973 42.9832ZM46.3821 35.7333C46.4062 34.875 46.123 34.1429 45.5323 33.5307C44.9417 32.9185 44.1823 32.6185 43.2542 32.6185C42.6877 32.6185 42.1875 32.7085 41.7596 32.8885C41.3256 33.0686 40.958 33.3026 40.6567 33.5847C40.3493 33.8668 40.1143 34.1969 39.9395 34.569C39.7707 34.9411 39.6743 35.3312 39.6502 35.7393L46.3821 35.7333Z" fill="white"/>
<path d="M53.6746 29.3656H58.5744V31.6042H58.6407C58.7974 31.2861 59.0264 30.974 59.3217 30.656C59.617 30.3379 59.9666 30.0558 60.3764 29.8097C60.7862 29.5637 61.2503 29.3596 61.7686 29.1976C62.2929 29.0415 62.8594 28.9575 63.4681 28.9575C64.6253 28.9575 65.6498 29.1976 66.5478 29.6717C67.4458 30.1458 68.1148 30.89 68.5728 31.9103C69.1634 30.848 69.8746 30.0918 70.7183 29.6417C71.5561 29.1916 72.5867 28.9635 73.8161 28.9635C74.925 28.9635 75.8652 29.1496 76.6246 29.5217C77.384 29.8938 77.9867 30.4039 78.4266 31.0461C78.8666 31.6882 79.186 32.4444 79.3788 33.3147C79.5717 34.1849 79.6681 35.1151 79.6681 36.1114V45.8339H74.5634V36.2374C74.5634 35.4692 74.4007 34.809 74.0692 34.2569C73.7378 33.7048 73.1592 33.4287 72.3154 33.4287C71.7248 33.4287 71.2306 33.5247 70.8329 33.7168C70.4351 33.9088 70.1157 34.1729 69.8806 34.515C69.6456 34.8511 69.4708 35.2472 69.3683 35.7033C69.2659 36.1534 69.2177 36.6275 69.2177 37.1256V45.8339H64.113V37.1256C64.113 36.8316 64.1009 36.4715 64.0768 36.0394C64.0527 35.6132 63.9744 35.2051 63.8418 34.821C63.7032 34.4369 63.4862 34.1069 63.1788 33.8368C62.8715 33.5667 62.4255 33.4287 61.8349 33.4287C61.1779 33.4287 60.6416 33.5487 60.2378 33.7828C59.8279 34.0228 59.5146 34.3349 59.3036 34.731C59.0867 35.1271 58.948 35.5712 58.8757 36.0694C58.8094 36.5675 58.7733 37.0836 58.7733 37.6298V45.8279H53.6686V29.3656H53.6746Z" fill="white"/>
<path d="M81.8618 37.5938C81.8618 36.2854 82.1029 35.0971 82.579 34.0348C83.0551 32.9725 83.706 32.0663 84.5377 31.3101C85.3634 30.5539 86.3397 29.9718 87.4607 29.5637C88.5817 29.1556 89.781 28.9515 91.0466 28.9515C92.3183 28.9515 93.5116 29.1556 94.6386 29.5637C95.7596 29.9718 96.7359 30.5539 97.5616 31.3101C98.3873 32.0663 99.0442 32.9786 99.5203 34.0348C99.9964 35.0971 100.237 36.2794 100.237 37.5938C100.237 38.9021 100.002 40.0904 99.5203 41.1527C99.0442 42.215 98.3933 43.1212 97.5616 43.8774C96.7359 44.6336 95.7596 45.2157 94.6386 45.6238C93.5176 46.0319 92.3183 46.236 91.0466 46.236C89.775 46.236 88.5817 46.0319 87.4607 45.6238C86.3397 45.2157 85.3634 44.6336 84.5377 43.8774C83.712 43.1212 83.0551 42.215 82.579 41.1527C82.0969 40.0904 81.8618 38.9081 81.8618 37.5938ZM86.9665 37.5938C86.9665 38.8361 87.3221 39.8383 88.0393 40.6065C88.7565 41.3747 89.7569 41.7588 91.0527 41.7588C92.3484 41.7588 93.3489 41.3747 94.0661 40.6065C94.7832 39.8383 95.1388 38.8361 95.1388 37.5938C95.1388 36.3514 94.7832 35.3492 94.0661 34.581C93.3489 33.8128 92.3484 33.4287 91.0527 33.4287C89.7569 33.4287 88.7565 33.8128 88.0393 34.581C87.3221 35.3492 86.9665 36.3514 86.9665 37.5938Z" fill="white"/>
</svg>
