<svg width="135" height="77" viewBox="0 0 135 77" fill="none" xmlns="http://www.w3.org/2000/svg">
<path d="M17.7368 20.6273C16.9232 21.6656 15.8866 22.4698 14.6391 23.034C13.3915 23.5981 12.1018 23.8802 10.7638 23.8802C9.49219 23.8802 8.29889 23.6761 7.17188 23.268C6.0509 22.8599 5.07456 22.2778 4.24889 21.5216C3.42322 20.7654 2.7663 19.8591 2.29019 18.7969C1.81407 17.7346 1.573 16.5523 1.573 15.2379C1.573 13.9296 1.81407 12.7413 2.29019 11.679C2.7663 10.6167 3.41719 9.71051 4.24889 8.95432C5.07456 8.19812 6.0509 7.61597 7.17188 7.20786C8.29286 6.79976 9.49219 6.5957 10.7638 6.5957C11.9451 6.5957 13.0118 6.79976 13.9761 7.20786C14.9404 7.61597 15.754 8.19812 16.423 8.95432C17.092 9.71051 17.6103 10.6227 17.9719 11.679C18.3335 12.7413 18.5143 13.9236 18.5143 15.2379V16.8284H6.67769C6.8826 17.8006 7.32255 18.5748 8.00358 19.151C8.6846 19.7271 9.52233 20.0152 10.5228 20.0152C11.3605 20.0152 12.0717 19.8291 12.6502 19.457C13.2288 19.0849 13.7351 18.6048 14.163 18.0167L17.7368 20.6273ZM13.4156 13.3775C13.4397 12.5192 13.1565 11.7871 12.5659 11.1749C11.9752 10.5627 11.2159 10.2627 10.2877 10.2627C9.72121 10.2627 9.22099 10.3527 8.79309 10.5327C8.35916 10.7128 7.99152 10.9468 7.69019 11.2289C7.38282 11.511 7.14777 11.8411 6.973 12.2132C6.80425 12.5853 6.70782 12.9754 6.68371 13.3835H13.4156V13.3775Z" fill="black"/>
<path d="M19.0266 7.00983H24.5351L28.7177 18.1907H28.784L32.6592 7.00983H37.794L31.261 23.4721H25.8489L19.0266 7.00983Z" fill="black"/>
<path d="M54.4761 20.6273C53.6625 21.6656 52.6259 22.4698 51.3783 23.034C50.1308 23.5981 48.8411 23.8802 47.5031 23.8802C46.2315 23.8802 45.0382 23.6761 43.9111 23.268C42.7902 22.8599 41.8138 22.2778 40.9882 21.5216C40.1625 20.7654 39.5056 19.8591 39.0294 18.7969C38.5533 17.7346 38.3123 16.5523 38.3123 15.2379C38.3123 13.9296 38.5533 12.7413 39.0294 11.679C39.5056 10.6167 40.1565 9.71051 40.9882 8.95432C41.8138 8.19812 42.7902 7.61597 43.9111 7.20786C45.0321 6.79976 46.2315 6.5957 47.5031 6.5957C48.6844 6.5957 49.7511 6.79976 50.7154 7.20786C51.6797 7.61597 52.4933 8.19812 53.1623 8.95432C53.8312 9.71051 54.3495 10.6227 54.7111 11.679C55.0728 12.7413 55.2536 13.9236 55.2536 15.2379V16.8284H43.4169C43.6219 17.8006 44.0618 18.5748 44.7428 19.151C45.4239 19.7271 46.2616 20.0152 47.262 20.0152C48.0998 20.0152 48.8109 19.8291 49.3895 19.457C49.9681 19.0849 50.4743 18.6048 50.9022 18.0167L54.4761 20.6273ZM50.1549 13.3775C50.179 12.5192 49.8957 11.7871 49.3051 11.1749C48.7145 10.5627 47.9551 10.2627 47.027 10.2627C46.4605 10.2627 45.9603 10.3527 45.5323 10.5327C45.0984 10.7128 44.7308 10.9468 44.4294 11.2289C44.1221 11.511 43.887 11.8411 43.7123 12.2132C43.5435 12.5853 43.4471 12.9754 43.423 13.3835H50.1549V13.3775Z" fill="black"/>
<path d="M57.2304 7.00979H62.1302V9.24837H62.1965C62.3532 8.93029 62.5822 8.61821 62.8775 8.30013C63.1728 7.98204 63.5224 7.69997 63.9322 7.45391C64.342 7.20784 64.8061 7.00379 65.3244 6.84175C65.8487 6.68571 66.4152 6.60168 67.0239 6.60168C68.3197 6.60168 69.3623 6.79974 70.1518 7.19584C70.9474 7.59194 71.5621 8.13808 72.0081 8.84027C72.448 9.54245 72.7494 10.3647 72.9121 11.3129C73.0688 12.2612 73.1471 13.2874 73.1471 14.3977V23.4781H68.0424V15.418C68.0424 14.9439 68.0244 14.4517 67.9942 13.9416C67.9581 13.4315 67.8556 12.9633 67.6869 12.5372C67.5181 12.1111 67.2529 11.757 66.9034 11.487C66.5538 11.2169 66.0476 11.0788 65.3907 11.0788C64.7337 11.0788 64.1974 11.1989 63.7936 11.4329C63.3837 11.673 63.0764 11.9851 62.8594 12.3812C62.6424 12.7773 62.5038 13.2214 62.4315 13.7195C62.3652 14.2177 62.3291 14.7338 62.3291 15.2799V23.4781H57.2244L57.2304 7.00979Z" fill="black"/>
<path d="M87.7078 11.0729H83.2179V16.5583C83.2179 17.0084 83.242 17.4225 83.2842 17.7946C83.3264 18.1667 83.4288 18.4908 83.5915 18.7609C83.7482 19.0309 83.9953 19.241 84.3208 19.385C84.6523 19.5351 85.0862 19.6071 85.6286 19.6071C85.8998 19.6071 86.2554 19.5771 86.7014 19.5231C87.1413 19.4691 87.4788 19.337 87.7078 19.133V23.3701C87.1413 23.5741 86.5507 23.7062 85.936 23.7782C85.3212 23.8442 84.7246 23.8802 84.134 23.8802C83.2721 23.8802 82.4766 23.7902 81.7534 23.6101C81.0302 23.4301 80.3913 23.142 79.8489 22.7459C79.3065 22.3498 78.8786 21.8397 78.5712 21.2035C78.2639 20.5733 78.1132 19.8051 78.1132 18.8989V11.0729H74.8467V7.00982H78.1132V2.13055H83.2179V7.00982H87.7078V11.0729Z" fill="black"/>
<path d="M105.601 23.4721H100.702V21.2335H100.635C100.454 21.5516 100.219 21.8637 99.9361 22.1818C99.6529 22.4998 99.3093 22.7819 98.8995 23.028C98.4897 23.274 98.0256 23.4781 97.5073 23.6401C96.983 23.7962 96.4165 23.8742 95.8078 23.8742C94.5181 23.8742 93.4634 23.6762 92.6618 23.2801C91.8542 22.884 91.2335 22.3378 90.7935 21.6356C90.3535 20.9334 90.0582 20.1112 89.9076 19.163C89.7569 18.2147 89.6846 17.1885 89.6846 16.0782V7.00983H94.7893V15.0699C94.7893 15.544 94.8073 16.0362 94.8375 16.5463C94.8736 17.0564 94.9761 17.5246 95.1448 17.9507C95.3136 18.3828 95.5727 18.7309 95.9283 19.0009C96.2779 19.271 96.7841 19.409 97.441 19.409C98.098 19.409 98.6343 19.289 99.0381 19.055C99.448 18.8209 99.7553 18.5028 99.9723 18.1067C100.189 17.7106 100.328 17.2665 100.4 16.7684C100.466 16.2702 100.503 15.7541 100.503 15.208V7.00983H105.607L105.601 23.4721Z" fill="black"/>
<path d="M107.572 7.00979H112.472V9.24837H112.538C112.695 8.93029 112.924 8.61821 113.219 8.30013C113.515 7.98204 113.864 7.69997 114.274 7.45391C114.684 7.20784 115.148 7.00379 115.666 6.84175C116.19 6.68571 116.757 6.60168 117.366 6.60168C118.523 6.60168 119.547 6.84175 120.445 7.31587C121.343 7.78999 122.018 8.53419 122.47 9.55445C123.061 8.49218 123.772 7.73598 124.616 7.28586C125.454 6.83575 126.484 6.60769 127.714 6.60769C128.823 6.60769 129.763 6.79373 130.522 7.16583C131.281 7.53793 131.884 8.04806 132.324 8.69023C132.764 9.33239 133.083 10.0886 133.276 10.9588C133.469 11.829 133.566 12.7593 133.566 13.7555V23.4781H128.461V13.8936C128.461 13.1254 128.298 12.4652 127.967 11.9131C127.635 11.3609 127.051 11.0848 126.213 11.0848C125.622 11.0848 125.128 11.1809 124.73 11.3729C124.333 11.565 124.013 11.829 123.778 12.1711C123.537 12.5072 123.368 12.9033 123.266 13.3594C123.163 13.8096 123.115 14.2837 123.115 14.7818V23.4901H118.01V14.7818C118.01 14.4877 117.998 14.1276 117.974 13.6955C117.95 13.2694 117.872 12.8613 117.733 12.4772C117.595 12.0931 117.378 11.763 117.07 11.493C116.763 11.2229 116.317 11.0848 115.726 11.0848C115.069 11.0848 114.533 11.2049 114.129 11.4389C113.719 11.679 113.406 11.9911 113.195 12.3872C112.978 12.7833 112.84 13.2274 112.767 13.7255C112.701 14.2237 112.665 14.7398 112.665 15.2859V23.4841H107.56V7.00979H107.572Z" fill="black"/>
<path d="M2.56128 29.3656H7.25615V31.5322H7.32244C7.52735 31.2381 7.79253 30.9381 8.124 30.632C8.45548 30.3259 8.84119 30.0498 9.28115 29.8038C9.7211 29.5577 10.2032 29.3536 10.7276 29.1916C11.2519 29.0356 11.8064 28.9515 12.397 28.9515C13.6204 28.9515 14.7354 29.1616 15.7298 29.5757C16.7303 29.9958 17.5861 30.578 18.2972 31.3402C19.0144 32.0964 19.5628 32.9966 19.9486 34.0349C20.3343 35.0731 20.5271 36.2134 20.5271 37.4557C20.5271 38.608 20.3524 39.7063 20.0028 40.7566C19.6532 41.8069 19.153 42.7371 18.5082 43.5533C17.8633 44.3635 17.0738 45.0177 16.1457 45.5038C15.2175 45.99 14.1628 46.23 12.9816 46.23C11.9149 46.23 10.9265 46.068 10.0044 45.7379C9.08829 45.4078 8.32891 44.8497 7.74432 44.0635H7.67802V53.5519H2.57333V29.3656H2.56128ZM7.25615 37.5938C7.25615 38.8361 7.61173 39.8384 8.32891 40.6066C9.0461 41.3748 10.0465 41.7589 11.3423 41.7589C12.6381 41.7589 13.6385 41.3748 14.3557 40.6066C15.0729 39.8384 15.4285 38.8361 15.4285 37.5938C15.4285 36.3515 15.0729 35.3492 14.3557 34.581C13.6385 33.8128 12.6381 33.4287 11.3423 33.4287C10.0465 33.4287 9.0461 33.8128 8.32891 34.581C7.61173 35.3492 7.25615 36.3515 7.25615 37.5938Z" fill="black"/>
<path d="M22.6667 29.3656H27.7714V32.0063H27.8377C28.3801 30.992 29.031 30.2299 29.7783 29.7197C30.5256 29.2096 31.4658 28.9575 32.5988 28.9575C32.8941 28.9575 33.1894 28.9695 33.4848 28.9935C33.7801 29.0175 34.0513 29.0595 34.2984 29.1316V33.7708C33.9368 33.6567 33.5752 33.5727 33.2256 33.5187C32.8761 33.4647 32.5024 33.4347 32.1227 33.4347C31.1464 33.4347 30.3749 33.5727 29.8084 33.8428C29.2419 34.1129 28.8019 34.491 28.5006 34.9771C28.1932 35.4632 27.9944 36.0454 27.904 36.7235C27.8135 37.4017 27.7653 38.1459 27.7653 38.9621V45.8399H22.6606L22.6667 29.3656Z" fill="black"/>
<path d="M50.6973 42.9832C49.8837 44.0215 48.8471 44.8257 47.5995 45.3898C46.352 45.954 45.0622 46.236 43.7243 46.236C42.4526 46.236 41.2593 46.032 40.1323 45.6239C39.0113 45.2158 38.035 44.6336 37.2093 43.8774C36.3837 43.1212 35.7268 42.215 35.2506 41.1527C34.7745 40.0904 34.5334 38.9081 34.5334 37.5938C34.5334 36.2854 34.7745 35.0971 35.2506 34.0349C35.7268 32.9726 36.3776 32.0663 37.2093 31.3101C38.035 30.554 39.0113 29.9718 40.1323 29.5637C41.2533 29.1556 42.4526 28.9515 43.7243 28.9515C44.9055 28.9515 45.9723 29.1556 46.9366 29.5637C47.9009 29.9718 48.7145 30.554 49.3835 31.3101C50.0524 32.0663 50.5707 32.9786 50.9323 34.0349C51.2939 35.0971 51.4747 36.2794 51.4747 37.5938V39.1842H39.6381C39.843 40.1564 40.283 40.9306 40.964 41.5068C41.6451 42.0829 42.4828 42.371 43.4832 42.371C44.3209 42.371 45.0321 42.185 45.6107 41.8129C46.1893 41.4408 46.6955 40.9607 47.1234 40.3725L50.6973 42.9832ZM46.3821 35.7333C46.4062 34.8751 46.123 34.1429 45.5323 33.5307C44.9417 32.9186 44.1823 32.6185 43.2542 32.6185C42.6877 32.6185 42.1875 32.7085 41.7596 32.8886C41.3256 33.0686 40.958 33.3027 40.6567 33.5847C40.3493 33.8668 40.1143 34.1969 39.9395 34.569C39.7707 34.9411 39.6743 35.3312 39.6502 35.7393L46.3821 35.7333Z" fill="black"/>
<path d="M53.6745 29.3656H58.5743V31.6042H58.6406C58.7973 31.2861 59.0263 30.974 59.3216 30.656C59.6169 30.3379 59.9664 30.0558 60.3763 29.8097C60.7861 29.5637 61.2501 29.3596 61.7685 29.1976C62.2928 29.0415 62.8593 28.9575 63.468 28.9575C64.6251 28.9575 65.6497 29.1976 66.5477 29.6717C67.4457 30.1458 68.1147 30.89 68.5727 31.9103C69.1633 30.848 69.8745 30.0918 70.7182 29.6417C71.5559 29.1916 72.5865 28.9635 73.816 28.9635C74.9249 28.9635 75.8651 29.1496 76.6245 29.5217C77.3839 29.8938 77.9865 30.4039 78.4265 31.0461C78.8664 31.6882 79.1859 32.4444 79.3787 33.3147C79.5716 34.1849 79.668 35.1151 79.668 36.1114V45.8339H74.5633V36.2374C74.5633 35.4692 74.4006 34.809 74.0691 34.2569C73.7376 33.7048 73.1591 33.4287 72.3153 33.4287C71.7247 33.4287 71.2305 33.5247 70.8327 33.7168C70.435 33.9088 70.1155 34.1729 69.8805 34.515C69.6455 34.8511 69.4707 35.2472 69.3682 35.7033C69.2658 36.1534 69.2176 36.6275 69.2176 37.1256V45.8339H64.1129V37.1256C64.1129 36.8316 64.1008 36.4715 64.0767 36.0394C64.0526 35.6132 63.9743 35.2051 63.8417 34.821C63.7031 34.4369 63.4861 34.1069 63.1787 33.8368C62.8714 33.5667 62.4254 33.4287 61.8347 33.4287C61.1778 33.4287 60.6414 33.5487 60.2376 33.7828C59.8278 34.0228 59.5144 34.3349 59.3035 34.731C59.0865 35.1271 58.9479 35.5712 58.8756 36.0694C58.8093 36.5675 58.7731 37.0836 58.7731 37.6298V45.8279H53.6685V29.3656H53.6745Z" fill="black"/>
<path d="M81.8618 37.5938C81.8618 36.2854 82.1029 35.0971 82.579 34.0349C83.0551 32.9726 83.706 32.0663 84.5377 31.3101C85.3634 30.554 86.3397 29.9718 87.4607 29.5637C88.5817 29.1556 89.781 28.9515 91.0466 28.9515C92.3183 28.9515 93.5116 29.1556 94.6386 29.5637C95.7596 29.9718 96.7359 30.554 97.5616 31.3101C98.3873 32.0663 99.0442 32.9786 99.5203 34.0349C99.9964 35.0971 100.237 36.2794 100.237 37.5938C100.237 38.9021 100.002 40.0904 99.5203 41.1527C99.0442 42.215 98.3933 43.1212 97.5616 43.8774C96.7359 44.6336 95.7596 45.2158 94.6386 45.6239C93.5176 46.032 92.3183 46.236 91.0466 46.236C89.775 46.236 88.5817 46.032 87.4607 45.6239C86.3397 45.2158 85.3634 44.6336 84.5377 43.8774C83.712 43.1212 83.0551 42.215 82.579 41.1527C82.0969 40.0904 81.8618 38.9081 81.8618 37.5938ZM86.9665 37.5938C86.9665 38.8361 87.3221 39.8384 88.0393 40.6066C88.7565 41.3748 89.7569 41.7589 91.0527 41.7589C92.3484 41.7589 93.3489 41.3748 94.0661 40.6066C94.7832 39.8384 95.1388 38.8361 95.1388 37.5938C95.1388 36.3515 94.7832 35.3492 94.0661 34.581C93.3489 33.8128 92.3484 33.4287 91.0527 33.4287C89.7569 33.4287 88.7565 33.8128 88.0393 34.581C87.3221 35.3492 86.9665 36.3515 86.9665 37.5938Z" fill="black"/>
</svg>
